<mxfile host="app.diagrams.net" modified="2023-11-23T11:56:36.932Z" agent="Mozilla/5.0 (X11; Linux x86_64) AppleWebKit/537.36 (KHTML, like Gecko) Chrome/117.0.0.0 Safari/537.36" etag="kgTGaxKUYxR8NHbS9zB4" version="22.1.3" type="device">
  <diagram name="PÃ¡gina-1" id="isOKbkJr-4oRFfDEnlHM">
    <mxGraphModel dx="989" dy="511" grid="1" gridSize="10" guides="1" tooltips="1" connect="1" arrows="1" fold="1" page="1" pageScale="1" pageWidth="827" pageHeight="1169" math="0" shadow="0">
      <root>
        <mxCell id="0" />
        <mxCell id="1" parent="0" />
        <mxCell id="By61hMJ0EFlSC0mSB0Wq-9" value="Tetris" style="swimlane;fontStyle=1;align=center;verticalAlign=top;childLayout=stackLayout;horizontal=1;startSize=26;horizontalStack=0;resizeParent=1;resizeParentMax=0;resizeLast=0;collapsible=1;marginBottom=0;whiteSpace=wrap;html=1;" parent="1" vertex="1">
          <mxGeometry x="304" y="50" width="180" height="220" as="geometry" />
        </mxCell>
        <mxCell id="By61hMJ0EFlSC0mSB0Wq-10" value="- board: Board&lt;br&gt;- points: int" style="text;strokeColor=none;fillColor=none;align=left;verticalAlign=top;spacingLeft=4;spacingRight=4;overflow=hidden;rotatable=0;points=[[0,0.5],[1,0.5]];portConstraint=eastwest;whiteSpace=wrap;html=1;" parent="By61hMJ0EFlSC0mSB0Wq-9" vertex="1">
          <mxGeometry y="26" width="180" height="34" as="geometry" />
        </mxCell>
        <mxCell id="By61hMJ0EFlSC0mSB0Wq-11" value="" style="line;strokeWidth=1;fillColor=none;align=left;verticalAlign=middle;spacingTop=-1;spacingLeft=3;spacingRight=3;rotatable=0;labelPosition=right;points=[];portConstraint=eastwest;strokeColor=inherit;" parent="By61hMJ0EFlSC0mSB0Wq-9" vertex="1">
          <mxGeometry y="60" width="180" height="8" as="geometry" />
        </mxCell>
        <mxCell id="By61hMJ0EFlSC0mSB0Wq-12" value="+ Tetris(row: int, column: int, strategy)&lt;br&gt;+toString()&lt;br&gt;+set()&lt;br&gt;+create()&lt;br&gt;+ getPoints()&lt;br&gt;+ drop()&lt;br&gt;+ moveR()&lt;br&gt;+ moveL()&lt;br&gt;" style="text;strokeColor=none;fillColor=none;align=left;verticalAlign=top;spacingLeft=4;spacingRight=4;overflow=hidden;rotatable=0;points=[[0,0.5],[1,0.5]];portConstraint=eastwest;whiteSpace=wrap;html=1;" parent="By61hMJ0EFlSC0mSB0Wq-9" vertex="1">
          <mxGeometry y="68" width="180" height="152" as="geometry" />
        </mxCell>
        <mxCell id="By61hMJ0EFlSC0mSB0Wq-13" value="Piece" style="swimlane;fontStyle=1;align=center;verticalAlign=top;childLayout=stackLayout;horizontal=1;startSize=26;horizontalStack=0;resizeParent=1;resizeParentMax=0;resizeLast=0;collapsible=1;marginBottom=0;whiteSpace=wrap;html=1;" parent="1" vertex="1">
          <mxGeometry x="550" y="260" width="160" height="180" as="geometry" />
        </mxCell>
        <mxCell id="By61hMJ0EFlSC0mSB0Wq-14" value="- color: Color&lt;br&gt;- sign: String&lt;br&gt;" style="text;strokeColor=none;fillColor=none;align=left;verticalAlign=top;spacingLeft=4;spacingRight=4;overflow=hidden;rotatable=0;points=[[0,0.5],[1,0.5]];portConstraint=eastwest;whiteSpace=wrap;html=1;" parent="By61hMJ0EFlSC0mSB0Wq-13" vertex="1">
          <mxGeometry y="26" width="160" height="44" as="geometry" />
        </mxCell>
        <mxCell id="By61hMJ0EFlSC0mSB0Wq-15" value="" style="line;strokeWidth=1;fillColor=none;align=left;verticalAlign=middle;spacingTop=-1;spacingLeft=3;spacingRight=3;rotatable=0;labelPosition=right;points=[];portConstraint=eastwest;strokeColor=inherit;" parent="By61hMJ0EFlSC0mSB0Wq-13" vertex="1">
          <mxGeometry y="70" width="160" height="8" as="geometry" />
        </mxCell>
        <mxCell id="By61hMJ0EFlSC0mSB0Wq-16" value="+ Piece (sign:String, color:Color)&lt;br&gt;+ getColor(): Color&lt;br&gt;+ getSign(): String" style="text;strokeColor=none;fillColor=none;align=left;verticalAlign=top;spacingLeft=4;spacingRight=4;overflow=hidden;rotatable=0;points=[[0,0.5],[1,0.5]];portConstraint=eastwest;whiteSpace=wrap;html=1;" parent="By61hMJ0EFlSC0mSB0Wq-13" vertex="1">
          <mxGeometry y="78" width="160" height="102" as="geometry" />
        </mxCell>
        <mxCell id="By61hMJ0EFlSC0mSB0Wq-20" value="Block" style="swimlane;fontStyle=1;align=center;verticalAlign=top;childLayout=stackLayout;horizontal=1;startSize=26;horizontalStack=0;resizeParent=1;resizeParentMax=0;resizeLast=0;collapsible=1;marginBottom=0;whiteSpace=wrap;html=1;" parent="1" vertex="1">
          <mxGeometry x="550" y="30" width="160" height="190" as="geometry" />
        </mxCell>
        <mxCell id="By61hMJ0EFlSC0mSB0Wq-21" value="- pieces: Piece[]" style="text;strokeColor=none;fillColor=none;align=left;verticalAlign=top;spacingLeft=4;spacingRight=4;overflow=hidden;rotatable=0;points=[[0,0.5],[1,0.5]];portConstraint=eastwest;whiteSpace=wrap;html=1;" parent="By61hMJ0EFlSC0mSB0Wq-20" vertex="1">
          <mxGeometry y="26" width="160" height="26" as="geometry" />
        </mxCell>
        <mxCell id="By61hMJ0EFlSC0mSB0Wq-22" value="" style="line;strokeWidth=1;fillColor=none;align=left;verticalAlign=middle;spacingTop=-1;spacingLeft=3;spacingRight=3;rotatable=0;labelPosition=right;points=[];portConstraint=eastwest;strokeColor=inherit;" parent="By61hMJ0EFlSC0mSB0Wq-20" vertex="1">
          <mxGeometry y="52" width="160" height="8" as="geometry" />
        </mxCell>
        <mxCell id="By61hMJ0EFlSC0mSB0Wq-23" value="+ setBlock(piece:Piece, color:Color): Block&lt;br&gt;+ getBlock(): Block&lt;br&gt;+ rotateL(): Block&lt;br&gt;+ rotateR(): Block&lt;br&gt;+ moveR(): Block&lt;br&gt;+ moveL(): Block&lt;br&gt;+ dropBlock()" style="text;strokeColor=none;fillColor=none;align=left;verticalAlign=top;spacingLeft=4;spacingRight=4;overflow=hidden;rotatable=0;points=[[0,0.5],[1,0.5]];portConstraint=eastwest;whiteSpace=wrap;html=1;" parent="By61hMJ0EFlSC0mSB0Wq-20" vertex="1">
          <mxGeometry y="60" width="160" height="130" as="geometry" />
        </mxCell>
        <mxCell id="By61hMJ0EFlSC0mSB0Wq-24" value="Board" style="swimlane;fontStyle=1;align=center;verticalAlign=top;childLayout=stackLayout;horizontal=1;startSize=26;horizontalStack=0;resizeParent=1;resizeParentMax=0;resizeLast=0;collapsible=1;marginBottom=0;whiteSpace=wrap;html=1;" parent="1" vertex="1">
          <mxGeometry x="309" y="310" width="170" height="230" as="geometry">
            <mxRectangle x="334" y="270" width="80" height="30" as="alternateBounds" />
          </mxGeometry>
        </mxCell>
        <mxCell id="By61hMJ0EFlSC0mSB0Wq-25" value="- pieces: Piece&lt;br&gt;- row: int&lt;br&gt;- column: int&lt;br&gt;-title: String" style="text;strokeColor=none;fillColor=none;align=left;verticalAlign=top;spacingLeft=4;spacingRight=4;overflow=hidden;rotatable=0;points=[[0,0.5],[1,0.5]];portConstraint=eastwest;whiteSpace=wrap;html=1;" parent="By61hMJ0EFlSC0mSB0Wq-24" vertex="1">
          <mxGeometry y="26" width="170" height="64" as="geometry" />
        </mxCell>
        <mxCell id="By61hMJ0EFlSC0mSB0Wq-26" value="" style="line;strokeWidth=1;fillColor=none;align=left;verticalAlign=middle;spacingTop=-1;spacingLeft=3;spacingRight=3;rotatable=0;labelPosition=right;points=[];portConstraint=eastwest;strokeColor=inherit;" parent="By61hMJ0EFlSC0mSB0Wq-24" vertex="1">
          <mxGeometry y="90" width="170" height="8" as="geometry" />
        </mxCell>
        <mxCell id="By61hMJ0EFlSC0mSB0Wq-27" value="+ Board(row: int, column: int)&lt;br&gt;+ fullLine(): boolean&lt;br&gt;+clearLine()&lt;br&gt;+setBoard()&lt;br&gt;+getBoard()&lt;br&gt;+ addTtile()&lt;br&gt;+addPoints()&lt;br&gt;+ addMessage()&lt;br&gt;&lt;br&gt;&amp;nbsp;" style="text;strokeColor=none;fillColor=none;align=left;verticalAlign=top;spacingLeft=4;spacingRight=4;overflow=hidden;rotatable=0;points=[[0,0.5],[1,0.5]];portConstraint=eastwest;whiteSpace=wrap;html=1;" parent="By61hMJ0EFlSC0mSB0Wq-24" vertex="1">
          <mxGeometry y="98" width="170" height="132" as="geometry" />
        </mxCell>
        <mxCell id="By61hMJ0EFlSC0mSB0Wq-38" value="TetrisTextUI" style="swimlane;fontStyle=1;align=center;verticalAlign=top;childLayout=stackLayout;horizontal=1;startSize=26;horizontalStack=0;resizeParent=1;resizeParentMax=0;resizeLast=0;collapsible=1;marginBottom=0;whiteSpace=wrap;html=1;" parent="1" vertex="1">
          <mxGeometry x="100" y="60" width="160" height="190" as="geometry" />
        </mxCell>
        <mxCell id="By61hMJ0EFlSC0mSB0Wq-39" value="- tetris: Tetris" style="text;strokeColor=none;fillColor=none;align=left;verticalAlign=top;spacingLeft=4;spacingRight=4;overflow=hidden;rotatable=0;points=[[0,0.5],[1,0.5]];portConstraint=eastwest;whiteSpace=wrap;html=1;" parent="By61hMJ0EFlSC0mSB0Wq-38" vertex="1">
          <mxGeometry y="26" width="160" height="64" as="geometry" />
        </mxCell>
        <mxCell id="By61hMJ0EFlSC0mSB0Wq-40" value="" style="line;strokeWidth=1;fillColor=none;align=left;verticalAlign=middle;spacingTop=-1;spacingLeft=3;spacingRight=3;rotatable=0;labelPosition=right;points=[];portConstraint=eastwest;strokeColor=inherit;" parent="By61hMJ0EFlSC0mSB0Wq-38" vertex="1">
          <mxGeometry y="90" width="160" height="8" as="geometry" />
        </mxCell>
        <mxCell id="By61hMJ0EFlSC0mSB0Wq-41" value="+ userMessage(): string&lt;br&gt;+ getPoints(): int&lt;br&gt;+Title()&lt;br&gt;+addPoints()&lt;br&gt;+Boolean addPoints()" style="text;strokeColor=none;fillColor=none;align=left;verticalAlign=top;spacingLeft=4;spacingRight=4;overflow=hidden;rotatable=0;points=[[0,0.5],[1,0.5]];portConstraint=eastwest;whiteSpace=wrap;html=1;" parent="By61hMJ0EFlSC0mSB0Wq-38" vertex="1">
          <mxGeometry y="98" width="160" height="92" as="geometry" />
        </mxCell>
        <mxCell id="pqwKqc2uiCU57DhphCEn-1" value="" style="endArrow=none;html=1;edgeStyle=orthogonalEdgeStyle;rounded=0;" parent="1" source="By61hMJ0EFlSC0mSB0Wq-9" target="By61hMJ0EFlSC0mSB0Wq-38" edge="1">
          <mxGeometry relative="1" as="geometry">
            <mxPoint x="544" y="330" as="sourcePoint" />
            <mxPoint x="704" y="330" as="targetPoint" />
          </mxGeometry>
        </mxCell>
        <mxCell id="pqwKqc2uiCU57DhphCEn-4" value="" style="endArrow=none;html=1;edgeStyle=orthogonalEdgeStyle;rounded=0;" parent="1" source="By61hMJ0EFlSC0mSB0Wq-9" target="By61hMJ0EFlSC0mSB0Wq-20" edge="1">
          <mxGeometry relative="1" as="geometry">
            <mxPoint x="544" y="330" as="sourcePoint" />
            <mxPoint x="704" y="330" as="targetPoint" />
          </mxGeometry>
        </mxCell>
        <mxCell id="pqwKqc2uiCU57DhphCEn-7" value="" style="endArrow=none;html=1;edgeStyle=orthogonalEdgeStyle;rounded=0;" parent="1" source="By61hMJ0EFlSC0mSB0Wq-24" target="By61hMJ0EFlSC0mSB0Wq-9" edge="1">
          <mxGeometry relative="1" as="geometry">
            <mxPoint x="494" y="250" as="sourcePoint" />
            <mxPoint x="654" y="250" as="targetPoint" />
          </mxGeometry>
        </mxCell>
        <mxCell id="pqwKqc2uiCU57DhphCEn-11" value="" style="endArrow=none;html=1;edgeStyle=orthogonalEdgeStyle;rounded=0;" parent="1" source="By61hMJ0EFlSC0mSB0Wq-20" target="By61hMJ0EFlSC0mSB0Wq-13" edge="1">
          <mxGeometry relative="1" as="geometry">
            <mxPoint x="594" y="40" as="sourcePoint" />
            <mxPoint x="754" y="40" as="targetPoint" />
          </mxGeometry>
        </mxCell>
        <mxCell id="pqwKqc2uiCU57DhphCEn-14" value="" style="endArrow=none;html=1;edgeStyle=orthogonalEdgeStyle;rounded=0;" parent="1" source="By61hMJ0EFlSC0mSB0Wq-24" target="By61hMJ0EFlSC0mSB0Wq-13" edge="1">
          <mxGeometry relative="1" as="geometry">
            <mxPoint x="510" y="500" as="sourcePoint" />
            <mxPoint x="670" y="500" as="targetPoint" />
          </mxGeometry>
        </mxCell>
        <mxCell id="pqwKqc2uiCU57DhphCEn-17" value="Color" style="swimlane;fontStyle=1;align=center;verticalAlign=top;childLayout=stackLayout;horizontal=1;startSize=26;horizontalStack=0;resizeParent=1;resizeParentMax=0;resizeLast=0;collapsible=1;marginBottom=0;whiteSpace=wrap;html=1;" parent="1" vertex="1">
          <mxGeometry x="550" y="470" width="160" height="86" as="geometry" />
        </mxCell>
        <mxCell id="pqwKqc2uiCU57DhphCEn-18" value="-color: Color" style="text;strokeColor=none;fillColor=none;align=left;verticalAlign=top;spacingLeft=4;spacingRight=4;overflow=hidden;rotatable=0;points=[[0,0.5],[1,0.5]];portConstraint=eastwest;whiteSpace=wrap;html=1;" parent="pqwKqc2uiCU57DhphCEn-17" vertex="1">
          <mxGeometry y="26" width="160" height="26" as="geometry" />
        </mxCell>
        <mxCell id="pqwKqc2uiCU57DhphCEn-19" value="" style="line;strokeWidth=1;fillColor=none;align=left;verticalAlign=middle;spacingTop=-1;spacingLeft=3;spacingRight=3;rotatable=0;labelPosition=right;points=[];portConstraint=eastwest;strokeColor=inherit;" parent="pqwKqc2uiCU57DhphCEn-17" vertex="1">
          <mxGeometry y="52" width="160" height="8" as="geometry" />
        </mxCell>
        <mxCell id="pqwKqc2uiCU57DhphCEn-20" value="+ method(type): type" style="text;strokeColor=none;fillColor=none;align=left;verticalAlign=top;spacingLeft=4;spacingRight=4;overflow=hidden;rotatable=0;points=[[0,0.5],[1,0.5]];portConstraint=eastwest;whiteSpace=wrap;html=1;" parent="pqwKqc2uiCU57DhphCEn-17" vertex="1">
          <mxGeometry y="60" width="160" height="26" as="geometry" />
        </mxCell>
        <mxCell id="pqwKqc2uiCU57DhphCEn-21" value="" style="endArrow=none;html=1;edgeStyle=orthogonalEdgeStyle;rounded=0;" parent="1" source="By61hMJ0EFlSC0mSB0Wq-13" target="pqwKqc2uiCU57DhphCEn-17" edge="1">
          <mxGeometry relative="1" as="geometry">
            <mxPoint x="320" y="480" as="sourcePoint" />
            <mxPoint x="480" y="480" as="targetPoint" />
          </mxGeometry>
        </mxCell>
      </root>
    </mxGraphModel>
  </diagram>
</mxfile>
